<?xml version="1.0" encoding="UTF-8" ?>
<!DOCTYPE svg PUBLIC "-//W3C//DTD SVG 1.1//EN" "http://www.w3.org/Graphics/SVG/1.1/DTD/svg11.dtd">
<svg width="1484pt" height="674pt" viewBox="0 0 1484 674" version="1.1" xmlns="http://www.w3.org/2000/svg">
<path fill="#fefdfd" d=" M 0.00 0.00 L 1484.00 0.00 L 1484.00 674.00 L 0.00 674.00 L 0.00 0.00 Z" />
<path fill="#c92229" d=" M 99.65 73.95 C 119.80 64.98 141.88 59.83 163.99 60.57 C 193.08 59.68 222.98 69.56 244.23 89.79 C 254.94 100.26 261.93 113.73 267.69 127.38 C 274.45 120.17 282.03 113.79 289.88 107.81 C 310.81 90.82 335.24 78.01 361.26 70.91 C 373.23 67.44 385.69 66.35 398.07 65.48 C 405.71 65.14 413.29 66.36 420.89 66.97 C 450.38 71.10 478.76 84.98 499.10 106.90 C 509.46 116.81 516.87 129.30 523.19 142.05 C 532.55 161.93 537.28 184.03 536.68 206.00 C 537.12 221.28 534.38 236.45 530.65 251.21 C 521.58 285.89 503.13 317.31 481.52 345.61 C 457.55 376.35 427.40 401.43 401.36 430.31 C 391.14 441.23 382.04 453.11 372.80 464.86 C 360.61 480.84 349.67 497.96 341.81 516.52 C 335.82 531.26 330.97 546.92 331.37 563.00 C 330.97 579.55 336.11 596.06 345.13 609.88 C 349.23 616.48 354.74 622.04 359.05 628.49 C 351.49 625.77 344.78 621.29 337.90 617.25 C 321.25 607.37 304.90 596.99 288.96 586.00 C 283.47 582.39 278.29 578.36 273.18 574.26 C 285.13 555.78 296.50 536.92 307.82 518.05 C 313.66 507.99 319.73 498.04 324.62 487.48 C 326.19 484.26 327.63 480.84 330.23 478.29 C 333.41 475.14 337.18 472.52 339.63 468.71 C 344.76 460.71 346.11 450.34 342.93 441.36 C 341.07 435.68 337.25 431.00 333.65 426.35 C 315.32 402.59 294.12 381.17 271.52 361.48 C 263.10 353.82 254.42 346.44 245.32 339.59 C 242.91 337.55 239.93 335.70 238.84 332.59 C 238.61 328.01 240.02 323.48 241.46 319.17 C 244.65 310.24 252.28 303.72 260.52 299.51 C 265.77 296.71 271.77 296.10 277.56 295.28 C 285.42 312.27 293.87 328.98 302.16 345.77 C 305.06 351.62 304.55 358.54 307.68 364.31 C 312.12 372.63 322.11 377.45 331.40 376.09 C 337.86 375.14 343.10 370.99 348.43 367.55 C 357.61 361.56 364.78 353.13 372.00 345.02 C 383.75 331.66 394.67 317.60 405.46 303.47 C 409.65 297.98 412.92 291.76 417.93 286.92 C 428.08 276.18 427.33 258.99 420.40 246.75 C 419.02 244.31 416.09 243.74 413.64 243.00 C 406.31 241.16 398.93 239.50 391.59 237.71 C 391.56 244.15 391.44 250.58 391.54 257.02 C 391.65 263.87 393.30 270.75 392.08 277.59 C 391.32 280.60 388.39 282.26 386.19 284.15 C 378.47 290.02 371.29 296.55 364.16 303.11 C 356.57 310.05 350.28 318.24 343.80 326.20 C 341.82 307.99 338.25 289.79 331.44 272.73 C 329.04 266.43 324.33 260.93 323.83 253.99 C 323.50 248.97 322.49 244.04 321.12 239.21 C 333.30 231.81 346.94 226.63 361.08 224.67 C 366.54 223.84 373.46 226.39 377.56 221.50 C 391.37 206.59 394.36 184.84 391.92 165.36 C 390.01 151.87 386.07 137.74 376.11 127.90 C 369.22 120.56 358.97 116.69 348.96 117.36 C 333.24 118.11 318.73 126.78 308.64 138.55 C 301.71 147.05 296.65 157.81 297.40 169.01 C 297.59 175.32 300.43 181.08 302.95 186.74 C 301.73 187.29 300.53 187.87 299.35 188.48 C 294.65 182.60 288.78 177.17 281.26 175.37 C 273.95 173.05 266.45 175.77 259.03 175.59 C 235.66 175.54 212.29 175.55 188.92 175.60 C 181.28 175.87 174.12 171.16 166.44 172.95 C 158.69 174.41 152.09 180.08 149.25 187.41 C 144.53 199.95 137.53 211.41 131.53 223.35 C 127.46 231.43 123.51 239.57 119.37 247.62 C 115.24 255.64 111.81 264.11 106.42 271.42 C 104.02 274.77 101.46 278.53 101.85 282.86 C 102.23 287.60 102.97 292.29 103.57 297.01 C 104.60 304.69 108.42 311.81 113.45 317.61 C 115.16 320.04 118.33 319.62 120.91 319.70 C 128.71 319.60 136.50 319.58 144.30 319.50 C 142.30 309.57 139.41 299.84 135.70 290.42 C 134.92 287.94 133.07 284.79 135.40 282.56 C 143.86 272.96 152.79 263.75 160.72 253.68 C 169.03 243.36 177.68 232.83 181.84 220.03 C 189.28 222.14 196.84 223.78 204.21 226.14 C 186.16 250.69 172.80 278.28 160.26 305.95 C 157.65 311.78 155.38 317.75 152.80 323.60 C 149.90 330.26 145.55 336.29 143.71 343.40 C 139.98 359.64 138.47 376.34 138.68 392.99 C 139.28 400.80 139.23 408.63 139.66 416.45 C 140.58 424.28 141.00 432.15 141.87 439.99 C 142.74 445.83 142.94 451.75 142.70 457.65 C 139.72 454.81 136.80 451.90 134.16 448.74 C 122.24 434.05 109.62 419.88 98.77 404.35 C 83.82 383.88 70.17 362.45 58.06 340.17 C 48.64 323.13 40.18 305.54 33.33 287.31 C 22.23 258.96 15.31 228.55 16.50 197.97 C 17.43 172.73 24.73 147.63 38.30 126.25 C 53.23 103.46 74.73 85.02 99.65 73.95 Z" />
<path fill="#c92229" d=" M 325.79 130.79 C 335.13 124.79 346.68 120.85 357.81 123.39 C 366.24 125.16 372.98 131.38 377.58 138.41 C 383.40 147.79 385.87 158.81 386.90 169.69 C 378.90 169.66 370.90 169.58 362.90 169.49 C 360.69 169.36 358.05 169.48 356.48 167.61 C 353.21 164.11 350.88 159.07 345.83 157.83 C 340.99 156.81 335.23 156.86 331.38 160.40 C 326.03 164.68 323.61 172.73 326.90 178.96 C 329.52 184.16 335.62 186.22 338.53 191.20 C 341.02 195.22 343.03 199.51 345.14 203.73 C 332.15 200.56 318.98 195.29 309.82 185.17 C 303.97 178.91 301.06 169.88 303.03 161.44 C 305.90 148.60 314.99 137.92 325.79 130.79 Z" />
<path fill="#c92229" d=" M 337.79 162.97 C 341.83 161.38 346.83 162.95 349.22 166.58 C 352.38 171.40 350.86 178.85 345.48 181.40 C 339.55 184.94 330.82 179.95 331.22 172.97 C 330.66 168.55 333.80 164.52 337.79 162.97 Z" />
<path fill="#c92229" d=" M 356.94 174.36 C 366.82 174.24 376.62 175.60 386.50 175.64 C 385.15 185.94 385.30 196.67 381.13 206.39 C 379.16 210.86 376.66 215.68 372.10 217.98 C 367.96 219.71 363.77 216.93 360.90 214.12 C 353.43 206.72 348.02 197.56 343.10 188.34 C 346.24 186.90 349.63 185.65 352.06 183.08 C 354.43 180.65 355.64 177.42 356.94 174.36 Z" />
<path fill="#c92229" d=" M 166.24 178.74 C 174.89 176.27 184.41 181.13 187.94 189.29 C 191.82 196.97 188.02 206.73 181.20 211.37 C 176.09 214.95 169.05 215.62 163.46 212.76 C 157.35 209.96 153.21 203.62 152.65 196.99 C 152.61 188.89 158.32 180.86 166.24 178.74 Z" />
<path fill="#c92229" d=" M 269.50 179.89 C 281.73 177.58 294.34 186.44 297.46 198.27 C 302.01 213.09 288.40 229.91 272.97 228.76 C 261.60 229.18 251.20 220.28 249.10 209.23 C 245.92 195.95 256.30 182.02 269.50 179.89 Z" />
<path fill="#c92229" d=" M 191.02 181.40 C 211.63 181.33 232.25 181.19 252.86 181.48 C 248.94 186.80 244.84 192.39 243.80 199.09 C 243.14 204.28 243.20 209.73 245.11 214.67 C 246.57 218.62 248.89 222.16 251.08 225.73 C 235.39 224.79 219.74 222.95 204.26 220.20 C 198.08 219.17 192.10 217.27 186.11 215.48 C 190.11 210.59 194.20 205.15 194.64 198.60 C 195.27 192.62 193.00 186.91 191.02 181.40 Z" />
<path fill="#c92229" d=" M 302.38 194.90 C 301.93 192.04 305.98 190.39 308.10 192.00 C 311.76 194.19 314.86 197.19 318.52 199.39 C 325.49 203.82 333.52 205.96 341.28 208.53 C 347.60 210.62 352.63 215.16 357.41 219.63 C 347.72 221.90 337.95 224.33 329.02 228.86 C 325.29 230.61 321.83 232.99 317.85 234.16 C 316.05 233.95 315.06 232.27 314.43 230.77 C 312.94 227.12 312.04 223.27 310.40 219.68 C 306.37 211.95 302.25 203.86 302.38 194.90 Z" />
<path fill="#c92229" d=" M 147.68 203.68 C 150.63 208.75 154.31 213.63 159.32 216.82 C 164.40 219.89 170.49 219.82 176.23 219.81 C 174.37 224.27 172.32 228.68 169.63 232.72 C 158.77 248.93 145.43 263.25 132.42 277.72 C 130.57 275.21 128.83 272.50 126.25 270.66 C 123.20 268.51 119.48 267.73 115.96 266.73 C 118.91 260.04 122.45 253.63 125.94 247.21 C 133.12 232.66 140.57 218.26 147.68 203.68 Z" />
<path fill="#c92229" d=" M 296.60 229.46 C 300.17 228.13 302.98 225.46 305.77 222.95 C 310.20 232.05 310.67 242.46 309.02 252.30 C 306.42 265.03 298.63 276.53 287.85 283.75 C 276.14 291.64 260.93 294.55 247.29 290.50 C 235.09 287.27 224.62 278.90 217.75 268.44 C 210.25 256.25 208.48 240.92 212.68 227.26 C 223.46 228.44 234.20 230.18 245.06 230.50 C 251.99 230.81 258.92 231.65 265.64 233.43 C 270.93 234.79 276.51 234.61 281.80 233.30 C 286.73 232.06 291.83 231.30 296.60 229.46 Z" />
<path fill="#c92229" d=" M 183.77 269.49 C 190.04 257.87 196.49 246.27 204.48 235.72 C 205.44 243.13 204.83 250.75 207.02 257.97 C 212.79 278.56 231.75 294.42 252.90 297.04 C 247.49 301.48 241.91 306.09 238.51 312.34 C 235.60 317.61 234.45 323.58 233.23 329.41 C 227.99 324.12 223.11 318.25 216.54 314.53 C 205.97 308.54 193.18 305.87 181.23 308.73 C 174.35 310.14 168.04 313.32 162.00 316.77 C 168.25 300.57 175.89 284.95 183.77 269.49 Z" />
<path fill="#c92229" d=" M 397.36 244.99 C 403.37 246.28 409.95 246.51 415.33 249.74 C 418.98 253.90 419.18 259.86 420.76 264.96 C 416.71 262.98 412.65 260.47 408.01 260.39 C 404.24 260.22 400.78 261.93 397.43 263.42 C 397.38 257.27 397.30 251.13 397.36 244.99 Z" />
<path fill="#c92229" d=" M 312.77 259.13 C 314.21 254.36 315.09 249.44 316.95 244.81 C 318.93 251.22 319.55 258.45 316.50 264.65 C 314.41 269.67 310.13 273.31 305.47 275.89 C 307.67 270.19 311.02 265.00 312.77 259.13 Z" />
<path fill="#c92229" d=" M 404.64 265.85 C 411.53 263.54 419.21 270.59 417.46 277.70 C 416.64 285.94 404.67 288.49 399.95 282.04 C 394.89 276.94 398.21 267.93 404.64 265.85 Z" />
<path fill="#c92229" d=" M 310.46 279.63 C 315.80 276.38 319.18 270.97 322.73 266.01 C 332.40 286.24 336.82 308.59 338.88 330.79 C 333.09 329.00 326.76 327.63 320.86 329.79 C 314.56 331.68 310.08 336.78 306.36 341.93 C 298.17 325.80 290.43 309.46 282.24 293.33 C 285.77 291.23 289.18 288.96 292.68 286.83 C 298.19 283.44 304.98 283.08 310.46 279.63 Z" />
<path fill="#c92229" d=" M 115.38 272.98 C 122.58 271.34 130.21 280.40 126.33 287.12 C 123.86 293.02 115.27 294.71 110.68 290.34 C 107.49 287.74 106.54 283.11 107.93 279.33 C 109.25 276.20 112.18 273.94 115.38 272.98 Z" />
<path fill="#c92229" d=" M 371.06 304.06 C 378.36 297.33 385.95 290.92 393.87 284.93 C 397.88 287.88 402.32 290.20 407.14 291.52 C 399.17 303.27 390.20 314.31 381.34 325.41 C 372.16 336.94 362.55 348.18 351.70 358.19 C 351.67 352.95 351.95 347.44 349.49 342.63 C 348.33 339.48 345.48 336.09 347.35 332.64 C 352.79 321.32 362.28 312.77 371.06 304.06 Z" />
<path fill="#c92229" d=" M 120.06 298.20 C 124.24 297.46 127.56 294.62 130.84 292.13 C 133.39 299.45 135.83 306.84 137.26 314.47 C 131.55 314.40 125.82 314.78 120.12 314.41 C 118.17 314.40 116.73 312.91 115.58 311.52 C 112.34 307.45 110.57 302.48 108.90 297.63 C 112.59 298.03 116.34 298.81 120.06 298.20 Z" />
<path fill="#c92229" d=" M 182.49 313.92 C 191.95 312.62 202.06 312.97 210.63 317.61 C 225.22 324.77 235.40 340.60 234.73 357.00 C 235.60 379.56 215.64 400.54 193.05 400.77 C 183.96 401.25 174.76 398.78 167.18 393.73 C 154.37 385.51 146.41 370.19 147.33 354.95 C 147.78 335.36 163.57 317.86 182.49 313.92 Z" />
<path fill="#c92229" d=" M 322.41 335.15 C 327.51 333.69 333.42 333.98 337.89 337.05 C 342.61 340.19 345.95 345.44 346.51 351.11 C 347.02 357.51 343.49 363.74 338.43 367.48 C 334.04 370.82 328.02 371.29 322.81 369.94 C 317.36 368.23 312.76 363.80 310.88 358.40 C 309.88 354.80 309.93 350.93 310.63 347.29 C 312.16 341.60 316.94 337.09 322.41 335.15 Z" />
<path fill="#c92229" d=" M 238.31 340.78 C 261.31 358.88 283.11 378.51 303.43 399.58 C 309.44 406.39 316.20 412.62 321.17 420.29 C 314.68 420.58 307.90 419.56 301.70 421.98 C 294.43 424.82 288.12 430.35 284.79 437.47 C 282.89 441.37 282.08 445.68 281.09 449.88 C 258.86 441.97 237.23 432.45 215.95 422.27 C 206.73 417.43 196.95 413.48 188.63 407.10 C 195.32 406.22 202.13 405.58 208.50 403.24 C 227.06 396.65 240.63 377.74 240.47 357.97 C 240.55 352.17 239.44 346.45 238.31 340.78 Z" />
<path fill="#c92229" d=" M 144.87 377.00 C 148.69 381.89 151.67 387.46 156.12 391.84 C 160.55 396.19 165.79 399.58 170.83 403.16 C 183.80 412.21 197.79 419.64 211.88 426.79 C 211.42 440.19 208.59 453.35 205.91 466.44 C 202.88 479.53 200.01 492.85 194.14 505.03 C 192.78 501.29 191.75 497.39 189.83 493.88 C 186.40 487.79 180.06 483.18 172.99 482.65 C 169.61 482.14 165.65 482.60 163.00 480.01 C 159.50 476.83 156.17 473.43 153.23 469.72 C 150.86 466.81 150.28 462.99 149.73 459.40 C 146.57 432.07 142.98 404.56 144.87 377.00 Z" />
<path fill="#c92229" d=" M 308.48 425.82 C 321.04 423.28 334.24 431.68 338.04 443.74 C 341.81 454.79 336.42 467.78 326.54 473.70 C 319.24 478.36 309.56 478.82 301.82 474.97 C 292.86 470.72 286.90 460.92 287.23 451.02 C 287.36 439.13 296.49 427.56 308.48 425.82 Z" />
<path fill="#c92229" d=" M 217.64 429.87 C 237.29 438.39 256.84 447.19 276.96 454.60 C 278.72 455.70 282.56 456.02 281.62 458.87 C 277.95 462.22 273.27 464.21 269.56 467.53 C 256.63 478.54 248.85 494.21 243.11 509.89 C 238.87 521.20 237.09 533.19 234.19 544.87 C 224.67 537.41 215.78 529.21 206.43 521.55 C 203.43 518.92 200.12 516.56 197.71 513.35 C 198.03 509.12 200.51 505.41 201.78 501.43 C 210.00 478.35 214.79 454.17 217.64 429.87 Z" />
<path fill="#c92229" d=" M 1309.62 453.56 C 1318.88 453.52 1328.15 453.54 1337.42 453.55 C 1337.50 473.06 1337.17 492.58 1337.62 512.09 C 1342.80 507.70 1347.87 502.79 1354.45 500.58 C 1364.29 497.24 1375.30 497.70 1385.02 501.26 C 1397.73 506.10 1406.24 518.35 1409.26 531.27 C 1412.12 541.28 1411.57 551.77 1411.34 562.04 C 1410.56 571.00 1408.12 579.93 1403.72 587.80 C 1397.94 597.77 1387.67 605.46 1376.02 606.58 C 1366.88 607.17 1357.16 607.42 1348.86 602.94 C 1344.68 600.83 1341.15 597.71 1337.55 594.79 C 1337.08 598.04 1336.59 601.29 1336.28 604.57 C 1327.39 604.60 1318.50 604.63 1309.61 604.54 C 1309.67 554.21 1309.65 503.88 1309.62 453.56 Z" />
<path fill="#c92229" d=" M 426.67 462.70 C 442.27 459.56 458.22 462.44 473.52 465.87 C 473.53 474.17 472.01 482.35 471.13 490.57 C 460.44 486.10 448.71 483.18 437.08 484.76 C 431.65 485.75 426.20 488.54 423.27 493.37 C 420.65 497.73 419.70 503.40 421.72 508.18 C 424.13 513.20 429.51 515.67 434.28 517.95 C 446.96 523.86 461.48 527.11 471.59 537.40 C 479.14 544.36 482.11 554.87 482.29 564.85 C 481.71 573.73 479.75 582.97 473.98 590.01 C 466.07 600.10 453.33 604.96 440.93 606.46 C 434.64 607.01 428.30 606.78 421.99 606.79 C 412.02 606.79 402.30 604.18 392.76 601.54 C 393.62 592.99 394.34 584.44 395.66 575.94 C 404.13 579.36 412.63 583.62 421.96 583.75 C 428.37 583.82 435.22 584.44 441.12 581.39 C 446.68 578.77 452.16 573.68 451.78 567.02 C 452.35 561.43 448.67 556.51 444.03 553.86 C 431.62 546.39 416.90 543.44 405.13 534.80 C 397.57 529.32 392.17 520.76 391.12 511.41 C 389.67 499.68 391.61 486.73 399.52 477.51 C 406.27 469.32 416.33 464.48 426.67 462.70 Z" />
<path fill="#c92229" d=" M 764.62 463.62 C 779.88 463.63 795.15 463.63 810.42 463.61 C 821.52 498.27 831.94 533.16 843.28 567.74 C 846.80 560.42 848.77 552.52 851.20 544.82 C 859.02 519.71 867.02 494.65 874.72 469.51 C 875.61 467.02 876.63 463.23 880.01 463.64 C 893.88 463.46 907.77 463.80 921.64 463.53 C 921.94 510.56 921.76 557.60 921.74 604.63 C 912.66 604.56 903.58 604.60 894.51 604.60 C 894.58 570.74 894.48 536.89 894.55 503.03 C 894.54 500.00 894.40 496.97 894.11 493.97 C 890.74 501.16 888.62 508.85 886.14 516.38 C 876.60 545.79 867.03 575.19 857.41 604.57 C 848.13 604.60 838.86 604.61 829.59 604.55 C 817.22 566.35 805.05 528.09 792.49 489.96 C 791.44 503.62 791.96 517.31 791.85 531.00 C 791.78 555.55 791.98 580.10 791.73 604.65 C 782.67 604.53 773.61 604.65 764.56 604.54 C 764.66 557.56 764.54 510.59 764.62 463.62 Z" />
<path fill="#c92229" d=" M 1065.66 463.63 C 1075.30 463.61 1084.95 463.69 1094.60 463.55 C 1095.14 482.79 1094.02 502.07 1095.25 521.28 C 1113.58 521.07 1131.91 521.20 1150.25 521.21 C 1150.31 502.25 1150.22 483.29 1150.32 464.33 C 1159.74 464.23 1169.16 464.24 1178.59 464.33 C 1178.60 511.10 1178.72 557.88 1178.53 604.65 C 1168.88 604.52 1159.23 604.65 1149.58 604.53 C 1149.66 584.16 1149.67 563.78 1149.57 543.41 C 1131.28 543.35 1113.00 543.34 1094.71 543.41 C 1094.70 563.82 1094.74 584.22 1094.67 604.63 C 1084.98 604.54 1075.29 604.66 1065.60 604.52 C 1065.70 557.56 1065.59 510.59 1065.66 463.63 Z" />
<path fill="#c92229" d=" M 276.68 468.74 C 278.94 467.25 281.38 465.11 284.27 465.49 C 286.49 467.75 288.08 470.52 290.12 472.92 C 294.10 477.82 299.94 481.10 306.12 482.22 C 310.94 482.95 315.83 482.58 320.68 482.63 C 313.30 498.36 303.93 513.04 295.10 527.97 C 286.29 542.40 277.72 556.99 268.27 571.01 C 260.62 565.67 253.35 559.81 245.83 554.27 C 243.95 552.81 241.94 551.39 240.56 549.41 C 240.02 547.32 240.27 545.13 240.54 543.03 C 243.90 525.01 248.59 506.96 257.73 490.92 C 262.42 482.31 269.04 474.84 276.68 468.74 Z" />
<path fill="#c92229" d=" M 507.75 480.51 C 516.89 477.34 526.19 474.62 535.30 471.36 C 535.51 481.09 535.42 490.83 535.46 500.57 C 543.73 500.53 551.99 500.65 560.26 500.64 C 560.24 507.54 560.20 514.43 560.28 521.33 C 552.00 521.23 543.72 521.41 535.44 521.37 C 535.53 537.22 535.25 553.07 535.54 568.92 C 535.98 574.57 537.05 581.67 542.74 584.44 C 548.50 586.75 554.76 584.61 560.45 583.08 C 560.59 590.29 561.39 597.47 561.40 604.69 C 552.51 607.18 543.18 607.11 534.03 606.60 C 524.33 605.84 515.73 599.22 511.55 590.59 C 508.26 583.91 507.79 576.33 507.77 569.02 C 507.83 553.13 507.83 537.24 507.76 521.35 C 501.36 521.37 494.96 521.28 488.57 521.41 C 488.56 514.45 488.56 507.50 488.56 500.55 C 494.95 500.63 501.34 500.55 507.73 500.60 C 507.79 493.91 507.88 487.21 507.75 480.51 Z" />
<path fill="#c92229" d=" M 172.11 487.99 C 175.27 488.78 178.59 489.66 181.06 491.93 C 184.50 494.79 186.05 499.14 187.48 503.24 C 181.51 499.10 176.30 493.90 172.11 487.99 Z" />
<path fill="#c92229" d=" M 616.51 500.26 C 622.11 497.73 628.36 498.43 634.32 498.66 C 634.34 508.01 634.30 517.36 634.37 526.71 C 626.47 525.15 616.89 523.35 610.23 529.15 C 602.65 535.75 601.20 546.48 600.59 555.96 C 600.43 572.15 600.57 588.35 600.53 604.55 C 591.20 604.55 581.87 604.83 572.55 604.28 C 572.81 569.74 572.59 535.18 572.67 500.64 C 580.90 500.58 589.14 500.60 597.38 500.61 C 597.36 506.38 597.26 512.16 597.62 517.93 C 602.87 511.11 608.17 503.52 616.51 500.26 Z" />
<path fill="#c92229" d=" M 683.70 498.98 C 697.52 497.01 712.22 499.55 724.10 507.05 C 738.18 515.89 746.36 532.41 746.79 548.82 C 747.43 560.24 745.70 572.10 739.97 582.16 C 731.40 596.79 715.02 606.41 698.06 606.77 C 692.17 606.83 686.23 607.09 680.40 606.17 C 671.54 604.51 662.95 600.78 656.06 594.91 C 644.51 584.78 638.03 569.32 638.39 554.02 C 637.77 537.68 644.03 520.47 657.10 510.17 C 664.63 503.92 674.08 500.37 683.70 498.98 Z" />
<path fill="#c92229" d=" M 985.47 498.94 C 1000.46 496.89 1016.55 500.13 1028.75 509.35 C 1039.22 517.17 1045.69 529.54 1047.77 542.30 C 1049.20 554.73 1048.75 567.91 1042.98 579.28 C 1035.84 594.34 1020.30 604.48 1003.95 606.49 C 998.96 606.95 993.94 606.85 988.94 606.78 C 970.52 606.44 952.59 595.17 944.94 578.29 C 940.16 567.32 938.21 554.92 940.49 543.09 C 942.50 528.68 950.42 514.84 962.83 506.96 C 969.65 502.63 977.49 500.06 985.47 498.94 Z" />
<path fill="#c92229" d=" M 1208.28 506.42 C 1225.95 498.56 1246.50 495.73 1265.25 501.32 C 1273.87 503.79 1281.44 510.11 1284.84 518.49 C 1288.58 527.47 1289.01 537.36 1289.25 546.96 C 1289.31 566.17 1288.74 585.42 1290.68 604.57 C 1282.39 604.60 1274.11 604.62 1265.82 604.53 C 1265.60 600.30 1265.24 596.07 1264.57 591.90 C 1257.97 598.96 1249.78 605.19 1239.94 606.51 C 1232.29 607.19 1224.24 607.31 1217.05 604.22 C 1210.17 601.30 1203.83 596.54 1199.98 590.05 C 1196.46 583.97 1197.28 576.66 1197.41 569.94 C 1197.63 562.08 1202.40 555.15 1208.31 550.32 C 1215.60 544.22 1225.24 542.05 1234.45 540.94 C 1244.26 540.16 1254.09 539.56 1263.94 539.72 C 1263.45 534.08 1262.72 527.75 1258.15 523.82 C 1252.47 518.46 1244.09 519.15 1236.88 519.29 C 1226.78 519.41 1217.85 524.71 1209.33 529.55 C 1208.36 521.88 1208.34 514.14 1208.28 506.42 Z" />
<path fill="#fefdfd" d=" M 1359.38 520.32 C 1364.55 519.85 1369.94 521.60 1373.58 525.39 C 1380.21 532.04 1382.59 541.84 1382.50 550.99 C 1382.75 559.80 1381.62 569.08 1376.68 576.60 C 1372.92 582.42 1365.98 586.13 1359.01 585.43 C 1351.15 585.11 1344.47 579.36 1341.44 572.35 C 1335.67 559.40 1335.66 543.45 1342.92 531.07 C 1346.30 525.18 1352.41 520.56 1359.38 520.32 Z" />
<path fill="#fefdfd" d=" M 687.27 520.73 C 693.57 519.66 700.56 520.21 705.91 524.02 C 713.15 529.24 717.55 538.02 717.72 546.92 C 718.25 557.04 717.33 567.90 711.32 576.43 C 703.37 587.68 684.83 588.62 675.73 578.29 C 668.04 569.55 666.82 557.10 667.59 545.95 C 668.68 534.89 675.57 522.90 687.27 520.73 Z" />
<path fill="#fefdfd" d=" M 988.27 520.85 C 995.99 519.22 1004.82 520.69 1010.55 526.45 C 1015.81 531.86 1018.97 539.36 1018.85 546.94 C 1018.86 553.81 1019.31 560.89 1017.00 567.48 C 1015.06 573.93 1010.99 580.04 1004.80 583.06 C 996.37 587.23 985.42 586.03 978.44 579.59 C 972.40 574.18 970.33 565.89 969.23 558.17 C 967.83 549.97 968.93 541.32 972.62 533.85 C 975.73 527.62 981.32 522.33 988.27 520.85 Z" />
<path fill="#fefdfd" d=" M 1241.32 557.91 C 1248.77 556.87 1256.31 557.31 1263.81 557.30 C 1263.68 564.24 1262.72 571.57 1258.41 577.27 C 1254.52 582.93 1247.92 586.71 1241.00 586.75 C 1235.95 586.90 1230.36 586.11 1226.57 582.48 C 1222.32 578.07 1222.44 570.68 1225.96 565.87 C 1229.42 560.88 1235.59 558.85 1241.32 557.91 Z" />
</svg>
